# xmcd
#
# Track frame offsets:
#	150
#	11454
#	23488
#	37269
#	51919
#	67483
#	86604
#	103645
#	116233
#	133241
#
# Disc length: 2038 seconds
#
# Revision: 1
# Processed by: cddbd v1.4PL0 Copyright (c) Steve Scherf et al.
# Submitted via: audiograbber 1.81.03
#
DISCID=8f07f40a
DTITLE=Silverados - Durch Staub and Regen
DYEAR=2003
DGENRE=
TTITLE0=Durch Staub und Regen
TTITLE1=Die schwäbische Alb
TTITLE2=Silbermond und Sterne
TTITLE3=Nicht merh weit von daheim
TTITLE4=Es klingelt der Wecker
TTITLE5=Der Mann aus den Bergen
TTITLE6=Er ist Trucker
TTITLE7=Country Lady
TTITLE8=Heimatlos (Duett mit Daddy Gräser)
TTITLE9=Wayfaring Stranger
EXTD=
EXTT0=
EXTT1=
EXTT2=
EXTT3=
EXTT4=
EXTT5=
EXTT6=
EXTT7=
EXTT8=
EXTT9=
PLAYORDER=
